<svg width="21" height="20" viewBox="0 0 21 20" fill="#858FA4" xmlns="http://www.w3.org/2000/svg">
<path d="M11.9471 17.605C10.0494 17.6046 8.20642 16.9694 6.71158 15.8004L2.01173 20.5L0.5 18.9883L5.19984 14.2888C4.03023 12.7938 3.39456 10.9505 3.3941 9.05249C3.3941 4.33686 7.23117 0.5 11.9471 0.5C16.6629 0.5 20.5 4.33686 20.5 9.05249C20.5 13.7681 16.6629 17.605 11.9471 17.605ZM11.9471 2.63812C8.40934 2.63812 5.53234 5.51497 5.53234 9.05249C5.53234 12.59 8.40934 15.4669 11.9471 15.4669C15.4848 15.4669 18.3618 12.59 18.3618 9.05249C18.3618 5.51497 15.4848 2.63812 11.9471 2.63812Z"  fill-opacity="0.7"/>
</svg>
